# xmcd CD database file
#
# Track frame offsets:
#	150
#	33312
#	50565
#	76042
#	105060
#	121450
#	144635
#	165715
#	183362
#	212885
#	234237
#	257327
#	293350
#
# Disc length: 4254 seconds
#
# Revision: 12
# Processed by: cddbd v1.5.1PL2 Copyright (c) Steve Scherf et al.
# Submitted via: CDex 1.40Beta8
#
DISCID=a0109c0d
DTITLE=Groove Armada - Vertigo
DYEAR=1999
DGENRE=Electronic
TTITLE0=Chicago
TTITLE1=Whatever, Whenever
TTITLE2=Dusk You and Me
TTITLE3=Pre 63
TTITLE4=If Everybody Looked The Same
TTITLE5=Serve Chilled
TTITLE6=I See You Baby
TTITLE7=A Private Interlude
TTITLE8=At The River
TTITLE9=In My Bones
TTITLE10=Your Song
TTITLE11=Inside My Mind (Blue Skies)
TTITLE12=I See You Baby (Fatboy Slim Mix)
EXTD=YEAR: 1999 ID3G: 52
EXTT0=
EXTT1=
EXTT2=
EXTT3=
EXTT4=
EXTT5=
EXTT6=
EXTT7=
EXTT8=
EXTT9=
EXTT10=
EXTT11=
EXTT12=
PLAYORDER=
